<mxfile host="app.diagrams.net" modified="2024-03-11T08:15:15.184Z" agent="Mozilla/5.0 (Windows NT 10.0; Win64; x64) AppleWebKit/537.36 (KHTML, like Gecko) Chrome/122.0.0.0 Safari/537.36" version="23.1.6" etag="__tHgi8RMMrVDo6wiXQb" type="github">
  <diagram name="Halaman-1" id="MfJGkZTYkOPF439ldqif">
    <mxGraphModel>
      <root>
        <mxCell id="0" />
        <mxCell id="1" parent="0" />
      </root>
    </mxGraphModel>
  </diagram>
</mxfile>
